<svg width="129" height="22" viewBox="0 0 129 22" fill="none" xmlns="http://www.w3.org/2000/svg">
<path d="M4.99749 21.9234L6.83974 13.9915L0.661133 8.6566L8.82369 7.95092L11.998 0.470703L15.1723 7.95092L23.3349 8.6566L17.1563 13.9915L18.9985 21.9234L11.998 17.7175L4.99749 21.9234Z" fill="#FFD665"/>
<path d="M31.1905 21.9234L33.0328 13.9915L26.8542 8.6566L35.0167 7.95092L38.191 0.470703L41.3654 7.95092L49.5279 8.6566L43.3493 13.9915L45.1916 21.9234L38.191 17.7175L31.1905 21.9234Z" fill="#FFD665"/>
<path d="M57.3835 21.9234L59.2258 13.9915L53.0472 8.6566L61.2097 7.95092L64.3841 0.470703L67.5584 7.95092L75.721 8.6566L69.5423 13.9915L71.3846 21.9234L64.3841 17.7175L57.3835 21.9234Z" fill="#FFD665"/>
<path d="M83.5765 21.9234L85.4187 13.9915L79.2401 8.6566L87.4027 7.95092L90.577 0.470703L93.7513 7.95092L101.914 8.6566L95.7353 13.9915L97.5775 21.9234L90.577 17.7175L83.5765 21.9234Z" fill="#FFD665"/>
<path d="M109.769 21.9234L111.612 13.9915L105.433 8.6566L113.596 7.95092L116.77 0.470703L119.944 7.95092L128.107 8.6566L121.928 13.9915L123.771 21.9234L116.77 17.7175L109.769 21.9234Z" fill="#FFD665"/>
</svg>
