<svg width="53" height="53" viewBox="0 0 53 53" fill="none" xmlns="http://www.w3.org/2000/svg">
<path d="M35.2586 6.76367C38.1429 6.76367 40.9091 7.90945 42.9486 9.94895C44.9881 11.9885 46.1338 14.7546 46.1338 17.6389V35.0393C46.1338 37.9235 44.9881 40.6897 42.9486 42.7292C40.9091 44.7687 38.1429 45.9145 35.2586 45.9145H17.8583C14.974 45.9145 12.2078 44.7687 10.1683 42.7292C8.12881 40.6897 6.98303 37.9235 6.98303 35.0393V17.6389C6.98303 14.7546 8.12881 11.9885 10.1683 9.94895C12.2078 7.90945 14.974 6.76367 17.8583 6.76367H35.2586ZM26.5584 17.6389C24.251 17.6389 22.0381 18.5555 20.4065 20.1871C18.7749 21.8187 17.8583 24.0316 17.8583 26.3391C17.8583 28.6465 18.7749 30.8594 20.4065 32.491C22.0381 34.1226 24.251 35.0393 26.5584 35.0393C28.8659 35.0393 31.0788 34.1226 32.7104 32.491C34.342 30.8594 35.2586 28.6465 35.2586 26.3391C35.2586 24.0316 34.342 21.8187 32.7104 20.1871C31.0788 18.5555 28.8659 17.6389 26.5584 17.6389ZM26.5584 21.989C27.7122 21.989 28.8186 22.4473 29.6344 23.2631C30.4502 24.0789 30.9085 25.1854 30.9085 26.3391C30.9085 27.4928 30.4502 28.5993 29.6344 29.4151C28.8186 30.2309 27.7122 30.6892 26.5584 30.6892C25.4047 30.6892 24.2983 30.2309 23.4825 29.4151C22.6667 28.5993 22.2083 27.4928 22.2083 26.3391C22.2083 25.1854 22.6667 24.0789 23.4825 23.2631C24.2983 22.4473 25.4047 21.989 26.5584 21.989ZM36.3461 14.3763C35.7693 14.3763 35.2161 14.6055 34.8082 15.0134C34.4003 15.4213 34.1711 15.9745 34.1711 16.5514C34.1711 17.1282 34.4003 17.6815 34.8082 18.0894C35.2161 18.4973 35.7693 18.7264 36.3461 18.7264C36.923 18.7264 37.4762 18.4973 37.8841 18.0894C38.292 17.6815 38.5212 17.1282 38.5212 16.5514C38.5212 15.9745 38.292 15.4213 37.8841 15.0134C37.4762 14.6055 36.923 14.3763 36.3461 14.3763Z" fill="#059948"/>
</svg>
