<svg width="53" height="53" viewBox="0 0 53 53" fill="none" xmlns="http://www.w3.org/2000/svg">
<path d="M19.7792 6.76416C20.1691 6.76405 20.5519 6.86878 20.8875 7.06737C21.2231 7.26597 21.4991 7.55113 21.6867 7.89301L21.7976 8.13226L26.1477 19.0075C26.3229 19.445 26.3512 19.9276 26.2284 20.3827C26.1057 20.8377 25.8384 21.2405 25.4669 21.5305L25.2494 21.6784L21.6084 23.8622L21.7454 24.0862C23.4784 26.8376 25.8062 29.1655 28.5576 30.8985L28.7795 31.0333L30.9654 27.3966C31.2077 26.9923 31.5747 26.6775 32.0113 26.4998C32.4479 26.3221 32.9304 26.2911 33.3862 26.4113L33.6364 26.4962L44.5116 30.8463C44.8737 30.9907 45.1903 31.2299 45.4283 31.5387C45.6663 31.8475 45.817 32.2145 45.8645 32.6015L45.8797 32.8647V41.5649C45.8797 45.1689 42.9586 48.09 39.2241 48.0857C20.5643 46.9525 5.68921 32.0773 4.55383 13.2893C4.55374 11.6249 5.18965 10.0234 6.33146 8.81248C7.47327 7.60154 9.03466 6.87268 10.6962 6.77504L11.079 6.76416H19.7792Z" fill="#059948"/>
</svg>
