<svg width="53" height="53" viewBox="0 0 53 53" fill="none" xmlns="http://www.w3.org/2000/svg">
<path fill-rule="evenodd" clip-rule="evenodd" d="M26.8112 2.95801C39.7245 2.95801 50.193 13.4265 50.193 26.3397C50.193 39.253 39.7245 49.7215 26.8112 49.7215C22.7657 49.7215 18.9593 48.6927 15.638 46.883L5.32831 48.6122C5.0742 48.6546 4.81366 48.6362 4.56802 48.5585C4.32238 48.4809 4.09863 48.3461 3.91509 48.1653C3.73154 47.9846 3.59343 47.7629 3.51205 47.5184C3.43067 47.274 3.40834 47.0138 3.4469 46.759L5.18693 35.2531C4.02127 32.4263 3.42408 29.3974 3.42949 26.3397C3.42949 13.4265 13.898 2.95801 26.8112 2.95801ZM17.9871 14.812C16.3884 14.812 15.0638 16.1605 15.3118 17.8266C15.7816 20.95 17.1693 26.7051 21.2975 30.8638C25.6128 35.2117 31.7877 37.0714 35.1308 37.8044C36.8621 38.185 38.339 36.8147 38.339 35.1247V31.1575C38.339 31.0256 38.2992 30.8969 38.2246 30.7882C38.1501 30.6795 38.0444 30.5959 37.9214 30.5484L33.6583 28.9106C33.5432 28.8666 33.418 28.856 33.2972 28.8802L28.9972 29.7197C26.224 28.2842 24.5448 26.6747 23.5378 24.2495L24.3469 19.8668C24.3686 19.7502 24.3581 19.6299 24.3165 19.5188L22.7178 15.2361C22.6714 15.1119 22.5883 15.0048 22.4795 14.9291C22.3707 14.8533 22.2414 14.8125 22.1088 14.812H17.9871Z" fill="#059948"/>
</svg>
