<svg width="42" height="48" viewBox="0 0 42 48" fill="none" xmlns="http://www.w3.org/2000/svg">
<g clip-path="url(#clip0_1433_630)">
<path d="M20.8456 11.3743C14.0801 11.3743 8.58022 16.8484 8.57091 23.5822C8.57091 25.8886 9.22234 28.1394 10.4507 30.0752L10.7392 30.5384L9.50152 35.0399L14.1453 33.8265L14.5919 34.0951C16.4718 35.2066 18.6308 35.7994 20.8363 35.7994H20.8456C27.6019 35.7994 33.2507 30.3253 33.2507 23.5915C33.2507 20.3311 31.8361 17.2652 29.5189 14.9589C27.1924 12.6433 24.1214 11.3743 20.8456 11.3743ZM28.0579 28.8248C27.7508 29.6862 26.2804 30.4643 25.5731 30.5661C24.4006 30.7421 23.4886 30.6495 21.1527 29.6492C17.4582 28.056 15.0386 24.351 14.8525 24.1102C14.6664 23.8694 13.3449 22.1188 13.3449 20.3126C13.3449 18.5064 14.2942 17.6172 14.6385 17.2467C14.9735 16.8762 15.3737 16.7836 15.6249 16.7836C15.8669 16.7836 16.1181 16.7836 16.3322 16.7929C16.5555 16.8021 16.8626 16.7095 17.1604 17.4227C17.4675 18.1544 18.2027 19.9606 18.2958 20.1459C18.3888 20.3311 18.454 20.5442 18.3237 20.785C17.6164 22.1929 16.8626 22.1373 17.2442 22.7857C18.668 25.2217 20.0918 26.0646 22.2602 27.1483C22.6324 27.3335 22.8465 27.3058 23.0605 27.0557C23.2745 26.8148 23.9818 25.9812 24.2238 25.62C24.4657 25.2495 24.717 25.3143 25.052 25.4347C25.387 25.5551 27.2017 26.4443 27.5739 26.6296C27.9462 26.8148 28.1881 26.9075 28.2812 27.0557C28.365 27.2317 28.365 27.9727 28.0579 28.8248ZM37.2244 2.96399H4.46692C2.00081 2.96399 0 4.95542 0 7.40997V40.0139C0 42.4684 2.00081 44.4598 4.46692 44.4598H37.2244C39.6905 44.4598 41.6913 42.4684 41.6913 40.0139V7.40997C41.6913 4.95542 39.6905 2.96399 37.2244 2.96399ZM20.8363 38.2725C18.3609 38.2725 15.932 37.6519 13.7823 36.4849L5.9559 38.5319L8.04977 30.9181C6.75622 28.6951 6.07688 26.1665 6.07688 23.573C6.08618 15.4776 12.7028 8.89197 20.8363 8.89197C24.7821 8.89197 28.4859 10.4203 31.2778 13.199C34.0603 15.9778 35.7354 19.6642 35.7354 23.5915C35.7354 31.6869 28.9699 38.2725 20.8363 38.2725Z" fill="white"/>
</g>
<defs>
<clipPath id="clip0_1433_630">
<rect width="41.6913" height="47.4238" fill="white"/>
</clipPath>
</defs>
</svg>
