<svg width="32" height="31" viewBox="0 0 32 31" fill="none" xmlns="http://www.w3.org/2000/svg">
<path fill-rule="evenodd" clip-rule="evenodd" d="M5.42047 3.96997L14.9886 12.2089L24.5569 3.96997H5.42047ZM3.45896 3.96997H3.45746V3.97177L3.45896 3.96997ZM3.45746 5.66111V21.9063H13.731C13.7149 21.6932 13.7068 21.4795 13.7068 21.2657C13.7068 16.6666 17.4351 12.9381 22.0344 12.9381C23.6854 12.9381 25.2241 13.4186 26.5185 14.2473V5.66225L14.9886 15.5907L3.45746 5.66111ZM26.5185 3.97015V3.96997H26.5183L26.5185 3.97015ZM25.4469 26.2797L25.7144 27.7631C24.6015 28.1291 23.467 28.3121 22.3111 28.3121C20.1836 28.3121 18.4528 27.6924 17.1185 26.453C15.6981 25.143 14.988 23.409 14.988 21.2513C14.988 19.2155 15.6613 17.5426 17.0078 16.2326C18.3974 14.8904 20.159 14.2193 22.2926 14.2193C24.2233 14.2193 25.8189 14.7395 27.0794 15.7799C27.7066 16.3 28.1954 16.939 28.5459 17.6967C28.9025 18.4803 29.0808 19.344 29.0808 20.288C29.0808 21.7843 28.6658 22.9788 27.8357 23.8714C27.0917 24.6677 26.2524 25.0659 25.3178 25.0659C24.3217 25.0659 23.7745 24.6132 23.6761 23.7077C23.0612 24.6132 22.2311 25.0659 21.1859 25.0659C20.3435 25.0659 19.6764 24.8219 19.1844 24.3338C18.6495 23.8072 18.3821 23.0847 18.382 22.1664C18.382 21.5563 18.5035 20.9575 18.7464 20.3699C18.9892 19.7823 19.3259 19.2733 19.7563 18.8431C20.5741 18.0275 21.6255 17.6197 22.9106 17.6197C23.8821 17.6197 24.789 17.777 25.6314 18.0917L25.0135 22.099C24.952 22.4907 24.9212 22.7765 24.9212 22.9563C24.9212 23.3994 25.1087 23.621 25.4838 23.621C25.9757 23.621 26.4153 23.3224 26.8027 22.7251C27.2762 21.9994 27.5129 21.1389 27.5129 20.1435C27.5129 18.7756 27.0517 17.7096 26.1294 16.9454C25.1087 16.1042 23.8421 15.6835 22.3295 15.6835C21.1612 15.6835 20.0975 15.9725 19.1384 16.5505C18.2345 17.0963 17.555 17.8348 17.1 18.766C16.7373 19.5238 16.5559 20.3651 16.5559 21.2898C16.5559 23.043 17.1646 24.4334 18.382 25.4609C19.4519 26.3663 20.8108 26.8191 22.4587 26.8191C23.3994 26.8191 24.3955 26.6393 25.4469 26.2797ZM23.7037 19.0936C23.3902 19.0036 23.135 18.9586 22.9383 18.9587C22.5878 18.9587 22.2404 19.0502 21.896 19.2332C21.5517 19.4162 21.2566 19.6683 21.0106 19.9894C20.5064 20.638 20.2543 21.3637 20.2543 22.1664C20.2543 22.616 20.365 22.9708 20.5863 23.2309C20.8077 23.4909 21.109 23.621 21.4902 23.621C22.0436 23.621 22.5017 23.3834 22.8645 22.9081C23.055 22.6641 23.2057 22.1921 23.3164 21.4921L23.7037 19.0936Z" fill="#059948"/>
</svg>
