<svg width="32" height="32" viewBox="0 0 32 32" fill="none" xmlns="http://www.w3.org/2000/svg">
<path fill-rule="evenodd" clip-rule="evenodd" d="M21.3975 28.7526C19.5352 28.6841 14.2573 27.9547 8.72986 22.4285C3.20369 16.901 2.47557 11.6245 2.40574 9.76086C2.30228 6.92082 4.47757 4.16227 6.9904 3.08497C7.293 2.9543 7.62437 2.90456 7.95199 2.94061C8.27962 2.97666 8.59224 3.09726 8.85918 3.2906C10.9284 4.79856 12.3562 7.0799 13.5822 8.87367C13.852 9.26777 13.9673 9.74734 13.9063 10.221C13.8452 10.6947 13.612 11.1293 13.2511 11.4421L10.728 13.3161C10.6061 13.4041 10.5203 13.5334 10.4865 13.6799C10.4527 13.8264 10.4733 13.9802 10.5443 14.1127C11.116 15.1512 12.1325 16.698 13.2964 17.8619C14.4604 19.0259 16.0808 20.1097 17.1918 20.7459C17.3311 20.8241 17.495 20.846 17.6499 20.807C17.8048 20.7681 17.9389 20.6712 18.0246 20.5364L19.6671 18.0365C19.9691 17.6354 20.4145 17.3667 20.9102 17.2867C21.4058 17.2066 21.9132 17.3215 22.3261 17.6072C24.1457 18.8668 26.2693 20.27 27.8238 22.2604C28.0328 22.5292 28.1658 22.8493 28.2088 23.1872C28.2518 23.525 28.2032 23.8682 28.0682 24.1809C26.9857 26.7067 24.2466 28.8574 21.3975 28.7526Z" fill="#059948"/>
</svg>
